
<svg xmlns="http://www.w3.org/2000/svg" width="80" height="80" fill="none"><g clip-path="url(#a)"><path fill="#563D7C" d="M0 42.103a6.189 6.189 0 0 0 6.19 6.189h35.62a6.189 6.189 0 0 0 6.19-6.19V6.483a6.19 6.19 0 0 0-6.19-6.19H6.19A6.19 6.19 0 0 0 0 6.48v35.621Z"/><path fill="#fff" d="M19.905 21.524v-6.798h5.983c.57 0 1.12.048 1.648.143.53.095.998.264 1.405.509.407.244.732.583.977 1.017.244.434.366.99.366 1.669 0 1.221-.366 2.103-1.1 2.646-.732.543-1.668.814-2.808.814h-6.471ZM13.514 9.76v29.063h14.084c1.302 0 2.57-.163 3.805-.488 1.235-.326 2.334-.828 3.297-1.506a7.419 7.419 0 0 0 2.3-2.626c.57-1.072.855-2.34.855-3.806 0-1.818-.441-3.371-1.323-4.66-.882-1.29-2.218-2.191-4.01-2.707 1.303-.624 2.287-1.425 2.952-2.402.665-.977.997-2.198.997-3.663 0-1.357-.224-2.496-.672-3.42a5.584 5.584 0 0 0-1.892-2.217c-.814-.557-1.791-.957-2.931-1.201-1.14-.244-2.402-.367-3.785-.367H13.514Zm6.39 24.097V25.88h6.96c1.385 0 2.497.319 3.339.957.84.637 1.262 1.702 1.262 3.195 0 .76-.13 1.384-.387 1.872a3.071 3.071 0 0 1-1.038 1.16 4.396 4.396 0 0 1-1.506.611 8.55 8.55 0 0 1-1.791.183h-6.838Z"/></g><defs><clipPath id="a"><path fill="#fff" d="M0 .292h48v48H0z"/></clipPath></defs></svg>